<svg width="30" height="31" viewBox="0 0 30 31" fill="none" xmlns="http://www.w3.org/2000/svg">
<g clip-path="url(#clip0_2_206)">
<path d="M22.5183 24.4626L22.3473 24.2134C21.8633 23.501 21.4775 22.7266 21.2005 21.9111C20.9487 20.8185 20.9176 19.6866 21.1092 18.5818L21.9119 15.3878C22.3442 13.6856 22.1401 11.8841 21.3378 10.3217C20.5356 8.75943 19.1904 7.54383 17.5551 6.90336L17.7647 6.0693C17.8222 5.84038 17.7865 5.59797 17.6653 5.39542C17.5441 5.19286 17.3474 5.04675 17.1185 4.98922C16.8896 4.93169 16.6472 4.96745 16.4446 5.08864C16.242 5.20984 16.0959 5.40653 16.0384 5.63546L15.8255 6.48245C14.0929 6.29307 12.3504 6.738 10.9207 7.73483C9.49102 8.73166 8.47101 10.2128 8.04961 11.904L7.24692 15.0981C6.89341 16.1621 6.33093 17.1449 5.59249 17.9887C4.97106 18.5765 4.27386 19.0786 3.51939 19.4817L3.25081 19.6205L2.79259 21.4438L22.0601 26.2859L22.5183 24.4626Z" fill="#8C8C8C"/>
<path d="M10.5553 24.1164C10.509 24.5405 10.6177 24.967 10.8614 25.3172C11.105 25.6673 11.4672 25.9175 11.8809 26.0215C12.2947 26.1255 12.7321 26.0762 13.1123 25.8829C13.4926 25.6895 13.7901 25.365 13.9497 24.9694L10.5553 24.1164Z" fill="#8C8C8C"/>
</g>
<defs>
<clipPath id="clip0_2_206">
<rect width="24" height="24" fill="white" transform="translate(5.84961 0.937088) rotate(14.107)"/>
</clipPath>
</defs>
</svg>
