<svg width="36" height="37" viewBox="0 0 36 37" fill="none" xmlns="http://www.w3.org/2000/svg">
<path d="M7.5 32.375C6.675 32.375 5.9685 32.0728 5.3805 31.4685C4.7925 30.8642 4.499 30.1386 4.5 29.2917V7.70834C4.5 6.86042 4.794 6.13429 5.382 5.52996C5.97 4.92563 6.676 4.62397 7.5 4.625H28.5C29.325 4.625 30.0315 4.92717 30.6195 5.5315C31.2075 6.13584 31.501 6.86145 31.5 7.70834V29.2917C31.5 30.1396 31.206 30.8657 30.618 31.47C30.03 32.0744 29.324 32.376 28.5 32.375H7.5ZM9 26.2083H27L21.375 18.5L16.875 24.6667L13.5 20.0417L9 26.2083Z" fill="#7D7DFF"/>
</svg>
