<svg width="25" height="25" viewBox="0 0 25 25" fill="none" xmlns="http://www.w3.org/2000/svg">
<path d="M15.1959 11.75L14.2959 12.67C13.5759 13.39 13.1259 14 13.1259 15.5H11.1259V15C11.1259 13.89 11.5759 12.89 12.2959 12.17L13.5359 10.91C13.9059 10.55 14.1259 10.05 14.1259 9.5C14.1259 8.96957 13.9151 8.46086 13.5401 8.08579C13.165 7.71071 12.6563 7.5 12.1259 7.5C11.5954 7.5 11.0867 7.71071 10.7116 8.08579C10.3366 8.46086 10.1259 8.96957 10.1259 9.5H8.12585C8.12585 8.43913 8.54728 7.42172 9.29743 6.67157C10.0476 5.92143 11.065 5.5 12.1259 5.5C13.1867 5.5 14.2041 5.92143 14.9543 6.67157C15.7044 7.42172 16.1259 8.43913 16.1259 9.5C16.1244 10.3432 15.7902 11.1518 15.1959 11.75ZM13.1259 19.5H11.1259V17.5H13.1259M12.1259 2.5C10.8126 2.5 9.51228 2.75866 8.29902 3.2612C7.08576 3.76375 5.98337 4.50035 5.05479 5.42893C3.17942 7.3043 2.12585 9.84784 2.12585 12.5C2.12585 15.1522 3.17942 17.6957 5.05479 19.5711C5.98337 20.4997 7.08576 21.2362 8.29902 21.7388C9.51228 22.2413 10.8126 22.5 12.1259 22.5C14.778 22.5 17.3216 21.4464 19.1969 19.5711C21.0723 17.6957 22.1259 15.1522 22.1259 12.5C22.1259 6.97 17.6259 2.5 12.1259 2.5Z" fill="#8C8C8C"/>
</svg>
