<svg width="25" height="24" viewBox="0 0 25 24" fill="none" xmlns="http://www.w3.org/2000/svg">
<path d="M7.29167 12C7.29167 12.5304 7.07217 13.0391 6.68147 13.4142C6.29077 13.7893 5.76087 14 5.20833 14C4.6558 14 4.12589 13.7893 3.73519 13.4142C3.34449 13.0391 3.125 12.5304 3.125 12C3.125 11.4696 3.34449 10.9609 3.73519 10.5858C4.12589 10.2107 4.6558 10 5.20833 10C5.76087 10 6.29077 10.2107 6.68147 10.5858C7.07217 10.9609 7.29167 11.4696 7.29167 12ZM14.5833 12C14.5833 12.5304 14.3638 13.0391 13.9731 13.4142C13.5824 13.7893 13.0525 14 12.5 14C11.9475 14 11.4176 13.7893 11.0269 13.4142C10.6362 13.0391 10.4167 12.5304 10.4167 12C10.4167 11.4696 10.6362 10.9609 11.0269 10.5858C11.4176 10.2107 11.9475 10 12.5 10C13.0525 10 13.5824 10.2107 13.9731 10.5858C14.3638 10.9609 14.5833 11.4696 14.5833 12ZM21.875 12C21.875 12.5304 21.6555 13.0391 21.2648 13.4142C20.8741 13.7893 20.3442 14 19.7917 14C19.2391 14 18.7092 13.7893 18.3185 13.4142C17.9278 13.0391 17.7083 12.5304 17.7083 12C17.7083 11.4696 17.9278 10.9609 18.3185 10.5858C18.7092 10.2107 19.2391 10 19.7917 10C20.3442 10 20.8741 10.2107 21.2648 10.5858C21.6555 10.9609 21.875 11.4696 21.875 12Z" fill="#333333"/>
</svg>
