<svg width="21" height="21" viewBox="0 0 21 21" fill="none" xmlns="http://www.w3.org/2000/svg">
<path d="M7.5 21H1.5C1.1023 20.9996 0.720997 20.8414 0.439778 20.5602C0.15856 20.279 0.000397108 19.8977 0 19.5V16.5C0.000397108 16.1023 0.15856 15.721 0.439778 15.4398C0.720997 15.1586 1.1023 15.0004 1.5 15H7.5C7.8977 15.0004 8.279 15.1586 8.56022 15.4398C8.84144 15.721 8.9996 16.1023 9 16.5V19.5C8.9996 19.8977 8.84144 20.279 8.56022 20.5602C8.279 20.8414 7.8977 20.9996 7.5 21ZM1.5 16.5V19.5H7.5V16.5H1.5ZM19.5 13.5H7.5C7.1023 13.4996 6.721 13.3414 6.43978 13.0602C6.15856 12.779 6.0004 12.3977 6 12V9C6.0004 8.6023 6.15856 8.221 6.43978 7.93978C6.721 7.65856 7.1023 7.5004 7.5 7.5H19.5C19.8977 7.5004 20.279 7.65856 20.5602 7.93978C20.8414 8.221 20.9996 8.6023 21 9V12C20.9996 12.3977 20.8414 12.779 20.5602 13.0602C20.279 13.3414 19.8977 13.4996 19.5 13.5ZM7.5 9V12H19.5V9H7.5ZM10.5 6H1.5C1.1023 5.9996 0.720997 5.84144 0.439778 5.56022C0.15856 5.279 0.000397108 4.8977 0 4.5V1.5C0.000397108 1.1023 0.15856 0.720997 0.439778 0.439778C0.720997 0.15856 1.1023 0.000397108 1.5 0H10.5C10.8977 0.000397108 11.279 0.15856 11.5602 0.439778C11.8414 0.720997 11.9996 1.1023 12 1.5V4.5C11.9996 4.8977 11.8414 5.279 11.5602 5.56022C11.279 5.84144 10.8977 5.9996 10.5 6ZM1.5 1.5V4.5H10.5V1.5H1.5Z" fill="#333333"/>
</svg>
