<svg width="19" height="20" viewBox="0 0 19 20" fill="none" xmlns="http://www.w3.org/2000/svg">
<path d="M3.9375 15.6086H5.8125C5.91563 15.6086 6 15.5242 6 15.4211V4.54608C6 4.44296 5.91563 4.35858 5.8125 4.35858H3.9375C3.83437 4.35858 3.75 4.44296 3.75 4.54608V15.4211C3.75 15.5242 3.83437 15.6086 3.9375 15.6086ZM8.4375 9.04608H10.3125C10.4156 9.04608 10.5 8.96171 10.5 8.85858V4.54608C10.5 4.44296 10.4156 4.35858 10.3125 4.35858H8.4375C8.33437 4.35858 8.25 4.44296 8.25 4.54608V8.85858C8.25 8.96171 8.33437 9.04608 8.4375 9.04608ZM12.9375 10.7336H14.8125C14.9156 10.7336 15 10.6492 15 10.5461V4.54608C15 4.44296 14.9156 4.35858 14.8125 4.35858H12.9375C12.8344 4.35858 12.75 4.44296 12.75 4.54608V10.5461C12.75 10.6492 12.8344 10.7336 12.9375 10.7336ZM18 0.608582H0.75C0.335156 0.608582 0 0.943738 0 1.35858V18.6086C0 19.0234 0.335156 19.3586 0.75 19.3586H18C18.4148 19.3586 18.75 19.0234 18.75 18.6086V1.35858C18.75 0.943738 18.4148 0.608582 18 0.608582ZM17.0625 17.6711H1.6875V2.29608H17.0625V17.6711Z" fill="#333333"/>
</svg>
