<svg width="22" height="11" viewBox="0 0 22 11" fill="none" xmlns="http://www.w3.org/2000/svg">
<path d="M17.4167 9.42857V11H6.41667V9.42857C6.41667 9.42857 6.41667 6.28571 11.9167 6.28571C17.4167 6.28571 17.4167 9.42857 17.4167 9.42857ZM14.6667 2.35714C14.6667 1.89094 14.5054 1.43522 14.2032 1.04759C13.901 0.659955 13.4715 0.357834 12.969 0.179428C12.4665 0.00102132 11.9136 -0.045658 11.3802 0.0452929C10.8467 0.136244 10.3567 0.36074 9.97212 0.690392C9.58753 1.02004 9.32562 1.44005 9.21951 1.89729C9.1134 2.35453 9.16786 2.82847 9.376 3.25918C9.58414 3.68989 9.93661 4.05803 10.3888 4.31704C10.8411 4.57604 11.3728 4.71429 11.9167 4.71429C12.646 4.71429 13.3455 4.46595 13.8612 4.0239C14.3769 3.58185 14.6667 2.9823 14.6667 2.35714ZM17.6 6.33286C18.1011 6.7291 18.5051 7.20692 18.7883 7.73843C19.0716 8.26995 19.2286 8.8445 19.25 9.42857V11H22V9.42857C22 9.42857 22 6.71786 17.6 6.33286ZM16.5 8.9661e-07C16.223 0.000142964 15.9478 0.0372542 15.6842 0.110001C16.2205 0.769191 16.508 1.5535 16.508 2.35714C16.508 3.16079 16.2205 3.9451 15.6842 4.60429C15.9478 4.67703 16.223 4.71414 16.5 4.71429C17.2293 4.71429 17.9288 4.46595 18.4445 4.0239C18.9603 3.58185 19.25 2.9823 19.25 2.35714C19.25 1.73199 18.9603 1.13244 18.4445 0.690392C17.9288 0.248342 17.2293 8.9661e-07 16.5 8.9661e-07ZM7.33333 3.92857H4.58333V1.57143H2.75V3.92857H0V5.5H2.75V7.85714H4.58333V5.5H7.33333V3.92857Z" fill="#AAAAAA"/>
</svg>
