<svg width="19" height="21" viewBox="0 0 19 21" fill="none" xmlns="http://www.w3.org/2000/svg">
<path d="M16.6042 11.44C16.6442 11.14 16.6642 10.83 16.6642 10.5C16.6642 10.18 16.6442 9.86 16.5942 9.56L18.6242 7.98C18.7117 7.90789 18.7714 7.80769 18.7933 7.69646C18.8152 7.58523 18.7978 7.46986 18.7442 7.37L16.8242 4.05C16.7677 3.94956 16.6774 3.87237 16.5694 3.83211C16.4614 3.79184 16.3427 3.79109 16.2342 3.83L13.8442 4.79C13.3442 4.41 12.8142 4.09 12.2242 3.85L11.8642 1.31C11.8465 1.19553 11.7883 1.0912 11.7002 1.01597C11.6122 0.940742 11.5 0.899592 11.3842 0.899997H7.5442C7.3042 0.899997 7.1142 1.07 7.0742 1.31L6.7142 3.85C6.1242 4.09 5.5842 4.42 5.0942 4.79L2.7042 3.83C2.4842 3.75 2.2342 3.83 2.1142 4.05L0.204198 7.37C0.0841975 7.58 0.124197 7.84 0.324197 7.98L2.3542 9.56C2.3042 9.86 2.2642 10.19 2.2642 10.5C2.2642 10.81 2.2842 11.14 2.3342 11.44L0.304197 13.02C0.216721 13.0921 0.156951 13.1923 0.13507 13.3035C0.113189 13.4148 0.130551 13.5301 0.184198 13.63L2.1042 16.95C2.2242 17.17 2.4742 17.24 2.6942 17.17L5.0842 16.21C5.5842 16.59 6.1142 16.91 6.7042 17.15L7.0642 19.69C7.1142 19.93 7.3042 20.1 7.5442 20.1H11.3842C11.6242 20.1 11.8242 19.93 11.8542 19.69L12.2142 17.15C12.8042 16.91 13.3442 16.59 13.8342 16.21L16.2242 17.17C16.4442 17.25 16.6942 17.17 16.8142 16.95L18.7342 13.63C18.8542 13.41 18.8042 13.16 18.6142 13.02L16.6042 11.44ZM9.4642 14.1C7.4842 14.1 5.8642 12.48 5.8642 10.5C5.8642 8.52 7.4842 6.9 9.4642 6.9C11.4442 6.9 13.0642 8.52 13.0642 10.5C13.0642 12.48 11.4442 14.1 9.4642 14.1Z" fill="#8C8C8C"/>
</svg>
