<svg width="22" height="17" viewBox="0 0 22 17" fill="none" xmlns="http://www.w3.org/2000/svg">
<path d="M5.5 16.1086C3.98 16.1086 2.68333 15.5852 1.61 14.5386C0.536667 13.4852 0 12.2019 0 10.6886C0 9.38858 0.39 8.22858 1.17 7.20858C1.95667 6.18858 2.98333 5.53858 4.25 5.25858C4.67 3.72525 5.50333 2.48525 6.75 1.53858C8.00333 0.585248 9.42 0.108582 11 0.108582C12.9533 0.108582 14.6067 0.788581 15.96 2.14858C17.32 3.50191 18 5.15525 18 7.10858C19.1533 7.24191 20.1067 7.74191 20.86 8.60858C21.62 9.46191 22 10.4619 22 11.6086C22 12.8619 21.5633 13.9252 20.69 14.7986C19.8167 15.6719 18.7533 16.1086 17.5 16.1086H12C11.4533 16.1086 10.9833 15.9119 10.59 15.5186C10.1967 15.1319 10 14.6619 10 14.1086V8.95858L8.4 10.5086L7 9.10858L11 5.10858L15 9.10858L13.6 10.5086L12 8.95858V14.1086H17.5C18.2 14.1086 18.79 13.8652 19.27 13.3786C19.7567 12.8986 20 12.3086 20 11.6086C20 10.9086 19.7567 10.3186 19.27 9.83858C18.79 9.35191 18.2 9.10858 17.5 9.10858H16V7.10858C16 5.72858 15.5133 4.54858 14.54 3.56858C13.5667 2.59525 12.3867 2.10858 11 2.10858C9.62 2.10858 8.44 2.59525 7.46 3.56858C6.48667 4.54858 6 5.72858 6 7.10858H5.5C4.53333 7.10858 3.71 7.45191 3.03 8.13858C2.34333 8.81858 2 9.64191 2 10.6086C2 11.5752 2.34333 12.4086 3.03 13.1086C3.71 13.7752 4.53333 14.1086 5.5 14.1086H8V16.1086" fill="#333333"/>
</svg>
