<svg width="20" height="17" viewBox="0 0 20 17" fill="none" xmlns="http://www.w3.org/2000/svg">
<path fill-rule="evenodd" clip-rule="evenodd" d="M4 0.5C2.93913 0.5 1.92172 0.921427 1.17157 1.67157C0.421427 2.42172 0 3.43913 0 4.5V12.5C0 13.5609 0.421427 14.5783 1.17157 15.3284C1.92172 16.0786 2.93913 16.5 4 16.5H16C17.0609 16.5 18.0783 16.0786 18.8284 15.3284C19.5786 14.5783 20 13.5609 20 12.5V4.5C20 3.43913 19.5786 2.42172 18.8284 1.67157C18.0783 0.921427 17.0609 0.5 16 0.5H4ZM12 2.5H8V14.5H12V2.5ZM14 2.5V14.5H16C16.5304 14.5 17.0391 14.2893 17.4142 13.9142C17.7893 13.5391 18 13.0304 18 12.5V4.5C18 3.96957 17.7893 3.46086 17.4142 3.08579C17.0391 2.71071 16.5304 2.5 16 2.5H14ZM4 14.5H6V2.5H4C3.46957 2.5 2.96086 2.71071 2.58579 3.08579C2.21071 3.46086 2 3.96957 2 4.5V12.5C2 13.0304 2.21071 13.5391 2.58579 13.9142C2.96086 14.2893 3.46957 14.5 4 14.5Z" fill="#333333"/>
</svg>
