<svg width="23" height="25" viewBox="0 0 23 25" fill="none" xmlns="http://www.w3.org/2000/svg">
<path d="M9 18.1437V11.1008L1.5 7.35077V17.6633L7.875 20.8625L7.51172 22.3508L0 18.6008V5.66327L9.75 0.799988L19.5 5.66327V8.82733C18.9531 8.91327 18.4531 9.08905 18 9.35468V7.35077L10.5 11.1008V16.6437L9 18.1437ZM7.33594 3.67108L14.1797 7.58514L17.0742 6.13202L9.75 2.46405L7.33594 3.67108ZM9.75 9.79999L12.5625 8.39374L5.71875 4.47968L2.42578 6.13202L9.75 9.79999ZM20.1562 10.632C20.4844 10.632 20.7891 10.6906 21.0703 10.8078C21.3516 10.925 21.6016 11.0851 21.8203 11.2883C22.0391 11.4914 22.2031 11.7375 22.3125 12.0266C22.4219 12.3156 22.4844 12.6242 22.5 12.9523C22.5 13.257 22.4414 13.5539 22.3242 13.843C22.207 14.132 22.0391 14.3859 21.8203 14.6047L13.418 23.007L9 24.1086L10.1016 19.6906L18.5039 11.3C18.7305 11.0734 18.9844 10.9055 19.2656 10.7961C19.5469 10.6867 19.8438 10.632 20.1562 10.632ZM20.7539 13.55C20.918 13.3859 21 13.1867 21 12.9523C21 12.7101 20.9219 12.5148 20.7656 12.3664C20.6094 12.218 20.4063 12.1398 20.1562 12.132C20.0469 12.132 19.9414 12.1476 19.8398 12.1789C19.7383 12.2101 19.6484 12.2687 19.5703 12.3547L11.4609 20.4641L11.0625 22.0461L12.6445 21.6476L20.7539 13.55Z" fill="#333333"/>
</svg>
