<svg width="11" height="22" viewBox="0 0 11 22" fill="none" xmlns="http://www.w3.org/2000/svg">
<path d="M8.912 5.15858L9.655 5.26658L8.913 5.15858H8.912ZM6.612 15.6086H7.228V14.1086H6.612V15.6086ZM8.36 16.4896L8.947 18.4896L10.386 18.0676L9.799 16.0676L8.36 16.4896ZM7.814 20.1086H5.891V21.6086H7.814V20.1086ZM5.017 19.8406C3.951 18.9566 1.5 16.3456 1.5 10.8586H0C0 16.8686 2.714 19.8796 4.06 20.9956L5.017 19.8406ZM1.5 10.8586C1.5 5.62558 3.267 2.99358 4.165 1.98858L3.047 0.988581C1.907 2.26458 0 5.24958 0 10.8586H1.5ZM6.612 7.60858H7V6.10858H6.612V7.60858ZM9.655 5.26658L9.948 3.26658L8.463 3.04958L8.17 5.04958L9.655 5.26658ZM7.293 0.108582H5.168L5.168 1.60858H7.293L7.293 0.108582ZM6.612 6.85858C6.612 6.10858 6.611 6.10858 6.61 6.10858H6.594C6.57162 6.10893 6.54926 6.11027 6.527 6.11258C6.36963 6.13027 6.21605 6.17279 6.072 6.23858C5.75203 6.3916 5.47712 6.62483 5.274 6.91558C4.771 7.60158 4.396 8.78958 4.396 10.8586H5.896C5.896 8.92858 6.254 8.11558 6.484 7.80158C6.594 7.65258 6.676 7.61158 6.694 7.60358C6.704 7.59858 6.705 7.59958 6.692 7.60258C6.67061 7.60691 6.64882 7.60892 6.627 7.60858H6.614C6.613 7.60858 6.612 7.60858 6.612 6.85858ZM4.396 10.8586C4.396 12.9286 4.771 14.1156 5.274 14.8016C5.531 15.1526 5.814 15.3616 6.072 15.4786C6.21606 15.5444 6.36963 15.5869 6.527 15.6046C6.54928 15.6067 6.57163 15.608 6.594 15.6086H6.61C6.61 15.6086 6.612 15.6086 6.612 14.8586C6.612 14.1086 6.612 14.1086 6.614 14.1086H6.62C6.64407 14.1096 6.6681 14.1116 6.692 14.1146C6.705 14.1176 6.704 14.1186 6.693 14.1136C6.6083 14.0655 6.53657 13.9976 6.484 13.9156C6.254 13.6016 5.896 12.7896 5.896 10.8586H4.396ZM9.948 3.26658C10.188 1.63258 8.963 0.108582 7.293 0.108582L7.293 1.60858C7.991 1.60858 8.58 2.26358 8.464 3.04858L9.948 3.26658ZM4.165 1.98858C4.382 1.74658 4.728 1.60858 5.168 1.60858L5.168 0.108582C4.435 0.108582 3.626 0.338581 3.047 0.988581L4.165 1.98858ZM5.891 20.1086C5.524 20.1086 5.229 20.0156 5.017 19.8406L4.06 20.9956C4.612 21.4526 5.28 21.6086 5.891 21.6086V20.1086ZM7 7.60858C8.347 7.60858 9.46 6.59458 9.655 5.26658L8.17 5.04958C8.078 5.67758 7.566 6.10858 7 6.10858V7.60858ZM8.946 18.4886C9.191 19.3266 8.578 20.1086 7.814 20.1086V21.6086C9.647 21.6086 10.893 19.7986 10.385 18.0686L8.945 18.4896L8.946 18.4886ZM7.228 15.6086C7.733 15.6086 8.202 15.9516 8.36 16.4896L9.799 16.0676C9.461 14.9186 8.428 14.1086 7.228 14.1086V15.6086Z" fill="#333333"/>
</svg>
